<svg width="93" height="24" viewBox="0 0 93 24" fill="none" xmlns="http://www.w3.org/2000/svg">
<path d="M32.2129 15.6562C32.6165 15.6562 32.8965 15.6172 33.0527 15.5391L33.0918 15.5488L32.9941 18H25.6797V4.94336C25.8555 4.95638 26.0508 4.96615 26.2656 4.97266L26.9492 4.99219C27.4049 5.00521 27.8997 5.01172 28.4336 5.01172C29.9245 5.01172 31.3991 4.98568 32.8574 4.93359C32.7858 5.50651 32.75 6.27148 32.75 7.22852C32.75 7.33268 32.7565 7.41081 32.7695 7.46289L32.75 7.49219C32.4115 7.39453 31.9297 7.3457 31.3047 7.3457H28.2285V9.83594H30.543C31.2591 9.83594 31.6888 9.81641 31.832 9.77734L31.8613 12.1895C31.5488 12.1569 31.1452 12.1406 30.6504 12.1406H28.2285V15.6562H32.2129ZM42.457 17.4531C41.6302 17.9154 40.8034 18.1465 39.9766 18.1465C39.1497 18.1465 38.4271 18.0163 37.8086 17.7559C37.1901 17.4954 36.6628 17.1374 36.2266 16.6816C35.3281 15.7441 34.8789 14.5267 34.8789 13.0293C34.8789 11.4798 35.3997 10.1908 36.4414 9.16211C37.4896 8.12044 38.8307 7.59961 40.4648 7.59961C40.9661 7.59961 41.4577 7.66471 41.9395 7.79492V3.44922H44.332V13.8887C44.332 14.7546 44.3711 15.321 44.4492 15.5879C44.5339 15.8548 44.625 16.0501 44.7227 16.1738C44.8268 16.2975 44.957 16.4147 45.1133 16.5254L43.2773 18.1465C42.9388 17.9642 42.6654 17.7331 42.457 17.4531ZM40.4355 15.9004C40.9824 15.9004 41.4837 15.7962 41.9395 15.5879V10.1777C41.4837 9.98893 40.9889 9.89453 40.4551 9.89453C39.9212 9.89453 39.4622 9.96615 39.0781 10.1094C38.7005 10.2526 38.375 10.4512 38.1016 10.7051C37.5286 11.2389 37.2422 11.9323 37.2422 12.7852C37.2422 13.7161 37.5026 14.4583 38.0234 15.0117C38.5833 15.6042 39.3874 15.9004 40.4355 15.9004ZM53.2676 17.1113C52.4342 17.8014 51.526 18.1465 50.543 18.1465C49.4883 18.1465 48.6615 17.7917 48.0625 17.082C47.4896 16.3919 47.2031 15.4447 47.2031 14.2402V10.3633C47.2031 9.0612 47.1738 8.31576 47.1152 8.12695C47.0632 7.93164 47.0241 7.80794 46.998 7.75586C47.2975 7.7819 47.61 7.79492 47.9355 7.79492H48.7461C48.9609 7.79492 49.2441 7.78516 49.5957 7.76562V13.4199C49.5957 14.7611 49.9603 15.5391 50.6895 15.7539C50.9108 15.819 51.1517 15.8516 51.4121 15.8516C52.1803 15.8516 52.7988 15.5716 53.2676 15.0117V7.79492H55.6895V16.75C55.6895 17.3229 55.7155 17.7396 55.7676 18H53.2676V17.1113ZM65.5527 17.3945C64.6283 17.8958 63.7917 18.1465 63.043 18.1465C62.2943 18.1465 61.653 18.0781 61.1191 17.9414C60.5853 17.7982 60.1328 17.5898 59.7617 17.3164C59.0065 16.763 58.6289 15.9622 58.6289 14.9141C58.6289 13.9766 59.0911 13.1953 60.0156 12.5703C61.0182 11.8932 62.3789 11.5547 64.0977 11.5547L64.4883 11.5645C64.5664 11.571 64.6543 11.5775 64.752 11.584C64.8496 11.584 64.9375 11.5905 65.0156 11.6035C64.9635 10.5618 64.5143 9.95312 63.668 9.77734C63.388 9.71875 63.0885 9.68945 62.7695 9.68945C62.457 9.68945 62.1478 9.71875 61.8418 9.77734C61.5423 9.82943 61.2493 9.90104 60.9629 9.99219C60.3314 10.194 59.8789 10.4251 59.6055 10.6855L59.5762 10.666L59.2832 8.50781C60.4355 7.90234 61.6953 7.59961 63.0625 7.59961C65.1849 7.59961 66.5423 8.36458 67.1348 9.89453C67.3236 10.3828 67.418 10.9329 67.418 11.5449V15.0801C67.418 15.8353 67.6849 16.3496 68.2188 16.623L66.4512 18.2441C66.0801 18.0488 65.7806 17.7656 65.5527 17.3945ZM65.0254 13.3613C64.8496 13.3288 64.6673 13.3125 64.4785 13.3125H64.0879C62.6491 13.3125 61.7344 13.6315 61.3438 14.2695C61.2266 14.4583 61.168 14.6569 61.168 14.8652C61.168 15.0736 61.2038 15.2591 61.2754 15.4219C61.3535 15.5781 61.4805 15.7083 61.6562 15.8125C61.9948 16.0078 62.4961 16.1055 63.1602 16.1055C63.8307 16.1055 64.4557 15.946 65.0352 15.627C65.0286 15.5553 65.0254 15.4805 65.0254 15.4023V13.3613ZM77.4766 17.4531C76.6497 17.9154 75.8229 18.1465 74.9961 18.1465C74.1693 18.1465 73.4466 18.0163 72.8281 17.7559C72.2096 17.4954 71.6823 17.1374 71.2461 16.6816C70.3477 15.7441 69.8984 14.5267 69.8984 13.0293C69.8984 11.4798 70.4193 10.1908 71.4609 9.16211C72.5091 8.12044 73.8503 7.59961 75.4844 7.59961C75.9857 7.59961 76.4772 7.66471 76.959 7.79492V3.44922H79.3516V13.8887C79.3516 14.7546 79.3906 15.321 79.4688 15.5879C79.5534 15.8548 79.6445 16.0501 79.7422 16.1738C79.8464 16.2975 79.9766 16.4147 80.1328 16.5254L78.2969 18.1465C77.9583 17.9642 77.6849 17.7331 77.4766 17.4531ZM75.4551 15.9004C76.002 15.9004 76.5033 15.7962 76.959 15.5879V10.1777C76.5033 9.98893 76.0085 9.89453 75.4746 9.89453C74.9408 9.89453 74.4818 9.96615 74.0977 10.1094C73.7201 10.2526 73.3945 10.4512 73.1211 10.7051C72.5482 11.2389 72.2617 11.9323 72.2617 12.7852C72.2617 13.7161 72.5221 14.4583 73.043 15.0117C73.6029 15.6042 74.4069 15.9004 75.4551 15.9004ZM89.1758 17.4531C88.349 17.9154 87.5221 18.1465 86.6953 18.1465C85.8685 18.1465 85.1458 18.0163 84.5273 17.7559C83.9089 17.4954 83.3815 17.1374 82.9453 16.6816C82.0469 15.7441 81.5977 14.5267 81.5977 13.0293C81.5977 11.4798 82.1185 10.1908 83.1602 9.16211C84.2083 8.12044 85.5495 7.59961 87.1836 7.59961C87.6849 7.59961 88.1764 7.66471 88.6582 7.79492V3.44922H91.0508V13.8887C91.0508 14.7546 91.0898 15.321 91.168 15.5879C91.2526 15.8548 91.3438 16.0501 91.4414 16.1738C91.5456 16.2975 91.6758 16.4147 91.832 16.5254L89.9961 18.1465C89.6576 17.9642 89.3841 17.7331 89.1758 17.4531ZM87.1543 15.9004C87.7012 15.9004 88.2025 15.7962 88.6582 15.5879V10.1777C88.2025 9.98893 87.7077 9.89453 87.1738 9.89453C86.64 9.89453 86.181 9.96615 85.7969 10.1094C85.4193 10.2526 85.0938 10.4512 84.8203 10.7051C84.2474 11.2389 83.9609 11.9323 83.9609 12.7852C83.9609 13.7161 84.2214 14.4583 84.7422 15.0117C85.3021 15.6042 86.1061 15.9004 87.1543 15.9004Z" fill="#4876EE"/>
<path d="M4.99823 3C3.89366 3 2.99823 3.89543 2.99823 5V19C2.99823 20.1046 3.89366 21 4.99823 21H18.9982C20.1028 21 20.9982 20.1046 20.9982 19V5C20.9982 3.89543 20.1028 3 18.9982 3H4.99823ZM7.29108 8.70718L8.70529 7.29297L16.7053 15.293L15.2911 16.7072L7.29108 8.70718Z" fill="#4876EE"/>
</svg>
